<?xml version="1.0" encoding="utf-8" ?>
<svg baseProfile="full" height="500mm" version="1.1" viewBox="0 0 700 500" width="700mm" xmlns="http://www.w3.org/2000/svg" xmlns:ev="http://www.w3.org/2001/xml-events" xmlns:xlink="http://www.w3.org/1999/xlink"><defs /><path d="M 50.0,50.0 L 72.2222222222,50.0 L 72.2222222222,60.0 L 94.4444444444,60.0 L 94.4444444444,50.0 L 116.666666667,50.0 L 116.666666667,60.0 L 138.888888889,60.0 L 138.888888889,50.0 L 161.111111111,50.0 L 161.111111111,60.0 L 183.333333333,60.0 L 183.333333333,50.0 L 205.555555556,50.0 L 205.555555556,60.0 L 227.777777778,60.0 L 227.777777778,50.0 L 250.0,50.0 L 250.0,50.0 L 250.0,72.2222222222 L 240.0,72.2222222222 L 240.0,94.4444444444 L 250.0,94.4444444444 L 250.0,116.666666667 L 240.0,116.666666667 L 240.0,138.888888889 L 250.0,138.888888889 L 250.0,161.111111111 L 240.0,161.111111111 L 240.0,183.333333333 L 250.0,183.333333333 L 250.0,205.555555556 L 240.0,205.555555556 L 240.0,227.777777778 L 250.0,227.777777778 L 250.0,250.0 L 250.0,250.0 L 227.777777778,250.0 L 227.777777778,240.0 L 205.555555556,240.0 L 205.555555556,250.0 L 183.333333333,250.0 L 183.333333333,240.0 L 161.111111111,240.0 L 161.111111111,250.0 L 138.888888889,250.0 L 138.888888889,240.0 L 116.666666667,240.0 L 116.666666667,250.0 L 94.4444444444,250.0 L 94.4444444444,240.0 L 72.2222222222,240.0 L 72.2222222222,250.0 L 50.0,250.0 L 50.0,250.0 L 50.0,227.777777778 L 60.0,227.777777778 L 60.0,205.555555556 L 50.0,205.555555556 L 50.0,183.333333333 L 60.0,183.333333333 L 60.0,161.111111111 L 50.0,161.111111111 L 50.0,138.888888889 L 60.0,138.888888889 L 60.0,116.666666667 L 50.0,116.666666667 L 50.0,94.4444444444 L 60.0,94.4444444444 L 60.0,72.2222222222 L 50.0,72.2222222222 L 50.0,50.0" fill="none" stroke="rgb(255, 255, 255)" stroke-opacity="1" stroke-width="1" /><path d="M 250.0,50.0 L 272.222222222,50.0 L 272.222222222,60.0 L 294.444444444,60.0 L 294.444444444,50.0 L 316.666666667,50.0 L 316.666666667,60.0 L 338.888888889,60.0 L 338.888888889,50.0 L 361.111111111,50.0 L 361.111111111,60.0 L 383.333333333,60.0 L 383.333333333,50.0 L 405.555555556,50.0 L 405.555555556,60.0 L 427.777777778,60.0 L 427.777777778,50.0 L 450.0,50.0 L 450.0,50.0 L 450.0,72.2222222222 L 440.0,72.2222222222 L 440.0,94.4444444444 L 450.0,94.4444444444 L 450.0,116.666666667 L 440.0,116.666666667 L 440.0,138.888888889 L 450.0,138.888888889 L 450.0,161.111111111 L 440.0,161.111111111 L 440.0,183.333333333 L 450.0,183.333333333 L 450.0,205.555555556 L 440.0,205.555555556 L 440.0,227.777777778 L 450.0,227.777777778 L 450.0,250.0 L 450.0,250.0 L 427.777777778,250.0 L 427.777777778,240.0 L 405.555555556,240.0 L 405.555555556,250.0 L 383.333333333,250.0 L 383.333333333,240.0 L 361.111111111,240.0 L 361.111111111,250.0 L 338.888888889,250.0 L 338.888888889,240.0 L 316.666666667,240.0 L 316.666666667,250.0 L 294.444444444,250.0 L 294.444444444,240.0 L 272.222222222,240.0 L 272.222222222,250.0 L 250.0,250.0 L 250.0,250.0 L 250.0,227.777777778 L 260.0,227.777777778 L 260.0,205.555555556 L 250.0,205.555555556 L 250.0,183.333333333 L 260.0,183.333333333 L 260.0,161.111111111 L 250.0,161.111111111 L 250.0,138.888888889 L 260.0,138.888888889 L 260.0,116.666666667 L 250.0,116.666666667 L 250.0,94.4444444444 L 260.0,94.4444444444 L 260.0,72.2222222222 L 250.0,72.2222222222 L 250.0,50.0" fill="none" stroke="rgb(255, 255, 255)" stroke-opacity="1" stroke-width="1" /><path d="M 460.0,50.0 L 472.222222222,50.0 L 472.222222222,60.0 L 494.444444444,60.0 L 494.444444444,50.0 L 516.666666667,50.0 L 516.666666667,60.0 L 538.888888889,60.0 L 538.888888889,50.0 L 561.111111111,50.0 L 561.111111111,60.0 L 583.333333333,60.0 L 583.333333333,50.0 L 605.555555556,50.0 L 605.555555556,60.0 L 627.777777778,60.0 L 627.777777778,50.0 L 640.0,50.0 L 640.0,50.0 L 640.0,72.2222222222 L 650.0,72.2222222222 L 650.0,94.4444444444 L 640.0,94.4444444444 L 640.0,116.666666667 L 650.0,116.666666667 L 650.0,138.888888889 L 640.0,138.888888889 L 640.0,161.111111111 L 650.0,161.111111111 L 650.0,183.333333333 L 640.0,183.333333333 L 640.0,205.555555556 L 650.0,205.555555556 L 650.0,227.777777778 L 640.0,227.777777778 L 640.0,250.0 L 640.0,250.0 L 627.777777778,250.0 L 627.777777778,240.0 L 605.555555556,240.0 L 605.555555556,250.0 L 583.333333333,250.0 L 583.333333333,240.0 L 561.111111111,240.0 L 561.111111111,250.0 L 538.888888889,250.0 L 538.888888889,240.0 L 516.666666667,240.0 L 516.666666667,250.0 L 494.444444444,250.0 L 494.444444444,240.0 L 472.222222222,240.0 L 472.222222222,250.0 L 460.0,250.0 L 460.0,250.0 L 460.0,227.777777778 L 450.0,227.777777778 L 450.0,205.555555556 L 460.0,205.555555556 L 460.0,183.333333333 L 450.0,183.333333333 L 450.0,161.111111111 L 460.0,161.111111111 L 460.0,138.888888889 L 450.0,138.888888889 L 450.0,116.666666667 L 460.0,116.666666667 L 460.0,94.4444444444 L 450.0,94.4444444444 L 450.0,72.2222222222 L 460.0,72.2222222222 L 460.0,50.0" fill="none" stroke="rgb(255, 255, 255)" stroke-opacity="1" stroke-width="1" /><path d="M 60.0,260.0 L 72.2222222222,260.0 L 72.2222222222,250.0 L 94.4444444444,250.0 L 94.4444444444,260.0 L 116.666666667,260.0 L 116.666666667,250.0 L 138.888888889,250.0 L 138.888888889,260.0 L 161.111111111,260.0 L 161.111111111,250.0 L 183.333333333,250.0 L 183.333333333,260.0 L 205.555555556,260.0 L 205.555555556,250.0 L 227.777777778,250.0 L 227.777777778,260.0 L 240.0,260.0 L 240.0,260.0 L 240.0,272.222222222 L 250.0,272.222222222 L 250.0,294.444444444 L 240.0,294.444444444 L 240.0,316.666666667 L 250.0,316.666666667 L 250.0,338.888888889 L 240.0,338.888888889 L 240.0,361.111111111 L 250.0,361.111111111 L 250.0,383.333333333 L 240.0,383.333333333 L 240.0,405.555555556 L 250.0,405.555555556 L 250.0,427.777777778 L 240.0,427.777777778 L 240.0,440.0 L 240.0,440.0 L 227.777777778,440.0 L 227.777777778,450.0 L 205.555555556,450.0 L 205.555555556,440.0 L 183.333333333,440.0 L 183.333333333,450.0 L 161.111111111,450.0 L 161.111111111,440.0 L 138.888888889,440.0 L 138.888888889,450.0 L 116.666666667,450.0 L 116.666666667,440.0 L 94.4444444444,440.0 L 94.4444444444,450.0 L 72.2222222222,450.0 L 72.2222222222,440.0 L 60.0,440.0 L 60.0,440.0 L 60.0,427.777777778 L 50.0,427.777777778 L 50.0,405.555555556 L 60.0,405.555555556 L 60.0,383.333333333 L 50.0,383.333333333 L 50.0,361.111111111 L 60.0,361.111111111 L 60.0,338.888888889 L 50.0,338.888888889 L 50.0,316.666666667 L 60.0,316.666666667 L 60.0,294.444444444 L 50.0,294.444444444 L 50.0,272.222222222 L 60.0,272.222222222 L 60.0,260.0" fill="none" stroke="rgb(255, 255, 255)" stroke-opacity="1" stroke-width="1" /><path d="M 260.0,260.0 L 272.222222222,260.0 L 272.222222222,250.0 L 294.444444444,250.0 L 294.444444444,260.0 L 316.666666667,260.0 L 316.666666667,250.0 L 338.888888889,250.0 L 338.888888889,260.0 L 361.111111111,260.0 L 361.111111111,250.0 L 383.333333333,250.0 L 383.333333333,260.0 L 405.555555556,260.0 L 405.555555556,250.0 L 427.777777778,250.0 L 427.777777778,260.0 L 440.0,260.0 L 440.0,260.0 L 440.0,272.222222222 L 450.0,272.222222222 L 450.0,294.444444444 L 440.0,294.444444444 L 440.0,316.666666667 L 450.0,316.666666667 L 450.0,338.888888889 L 440.0,338.888888889 L 440.0,361.111111111 L 450.0,361.111111111 L 450.0,383.333333333 L 440.0,383.333333333 L 440.0,405.555555556 L 450.0,405.555555556 L 450.0,427.777777778 L 440.0,427.777777778 L 440.0,440.0 L 440.0,440.0 L 427.777777778,440.0 L 427.777777778,450.0 L 405.555555556,450.0 L 405.555555556,440.0 L 383.333333333,440.0 L 383.333333333,450.0 L 361.111111111,450.0 L 361.111111111,440.0 L 338.888888889,440.0 L 338.888888889,450.0 L 316.666666667,450.0 L 316.666666667,440.0 L 294.444444444,440.0 L 294.444444444,450.0 L 272.222222222,450.0 L 272.222222222,440.0 L 260.0,440.0 L 260.0,440.0 L 260.0,427.777777778 L 250.0,427.777777778 L 250.0,405.555555556 L 260.0,405.555555556 L 260.0,383.333333333 L 250.0,383.333333333 L 250.0,361.111111111 L 260.0,361.111111111 L 260.0,338.888888889 L 250.0,338.888888889 L 250.0,316.666666667 L 260.0,316.666666667 L 260.0,294.444444444 L 250.0,294.444444444 L 250.0,272.222222222 L 260.0,272.222222222 L 260.0,260.0" fill="none" stroke="rgb(255, 255, 255)" stroke-opacity="1" stroke-width="1" /><path d="M 460.0,250.0 L 472.222222222,250.0 L 472.222222222,260.0 L 494.444444444,260.0 L 494.444444444,250.0 L 516.666666667,250.0 L 516.666666667,260.0 L 538.888888889,260.0 L 538.888888889,250.0 L 561.111111111,250.0 L 561.111111111,260.0 L 583.333333333,260.0 L 583.333333333,250.0 L 605.555555556,250.0 L 605.555555556,260.0 L 627.777777778,260.0 L 627.777777778,250.0 L 640.0,250.0 L 640.0,250.0 L 640.0,272.222222222 L 650.0,272.222222222 L 650.0,294.444444444 L 640.0,294.444444444 L 640.0,316.666666667 L 650.0,316.666666667 L 650.0,338.888888889 L 640.0,338.888888889 L 640.0,361.111111111 L 650.0,361.111111111 L 650.0,383.333333333 L 640.0,383.333333333 L 640.0,405.555555556 L 650.0,405.555555556 L 650.0,427.777777778 L 640.0,427.777777778 L 640.0,450.0 L 640.0,450.0 L 627.777777778,450.0 L 627.777777778,440.0 L 605.555555556,440.0 L 605.555555556,450.0 L 583.333333333,450.0 L 583.333333333,440.0 L 561.111111111,440.0 L 561.111111111,450.0 L 538.888888889,450.0 L 538.888888889,440.0 L 516.666666667,440.0 L 516.666666667,450.0 L 494.444444444,450.0 L 494.444444444,440.0 L 472.222222222,440.0 L 472.222222222,450.0 L 460.0,450.0 L 460.0,450.0 L 460.0,427.777777778 L 450.0,427.777777778 L 450.0,405.555555556 L 460.0,405.555555556 L 460.0,383.333333333 L 450.0,383.333333333 L 450.0,361.111111111 L 460.0,361.111111111 L 460.0,338.888888889 L 450.0,338.888888889 L 450.0,316.666666667 L 460.0,316.666666667 L 460.0,294.444444444 L 450.0,294.444444444 L 450.0,272.222222222 L 460.0,272.222222222 L 460.0,250.0" fill="none" stroke="rgb(255, 255, 255)" stroke-opacity="1" stroke-width="1" /></svg>