<?xml version="1.0" encoding="utf-8" ?>
<svg baseProfile="full" height="700" version="1.1" width="700" xmlns="http://www.w3.org/2000/svg" xmlns:ev="http://www.w3.org/2001/xml-events" xmlns:xlink="http://www.w3.org/1999/xlink"><defs /><circle cx="332.795984452" cy="365.764575765" fill="lightgrey" r="10" /><circle cx="352.876139511" cy="317.125574963" fill="lightgrey" r="10" /><circle cx="374.604055457" cy="382.064629346" fill="lightgrey" r="10" /><circle cx="304.039960139" cy="341.896004938" fill="lightgrey" r="10" /><circle cx="394.00612581" cy="321.965005953" fill="lightgrey" r="10" /><circle cx="335.206504709" cy="405.210076047" fill="lightgrey" r="10" /><circle cx="321.492865693" cy="295.238304504" fill="lightgrey" r="10" /><circle cx="412.019712972" cy="372.573329459" fill="lightgrey" r="10" /><circle cx="285.325133239" cy="376.789206957" fill="lightgrey" r="10" /><circle cx="381.185104339" cy="283.123327928" fill="lightgrey" r="10" /><circle cx="373.272181148" cy="423.809928767" fill="lightgrey" r="10" /><circle cx="279.996428663" cy="309.583419244" fill="lightgrey" r="10" /><circle cx="432.139514457" cy="331.790108053" fill="lightgrey" r="10" /><circle cx="299.92115992" cy="421.51999564" fill="lightgrey" r="10" /><circle cx="338.203796929" cy="260.398942009" fill="lightgrey" r="10" /><circle cx="421.501129095" cy="409.996571053" fill="lightgrey" r="10" /><circle cx="253.880865009" cy="354.196652065" fill="lightgrey" r="10" /><circle cx="420.003571337" cy="279.996428663" fill="lightgrey" r="10" /><circle cx="345.563348622" cy="451.616022972" fill="lightgrey" r="10" /><circle cx="282.921794355" cy="270.059307437" fill="lightgrey" r="10" /><circle cx="456.017401545" cy="363.957455701" fill="lightgrey" r="10" /><circle cx="260.344940754" cy="412.777148323" fill="lightgrey" r="10" /><circle cx="374.221420572" cy="240.744232255" fill="lightgrey" r="10" /><circle cx="407.15767665" cy="449.0" fill="lightgrey" r="10" /><circle cx="238.727345671" cy="314.915866855" fill="lightgrey" r="10" /><circle cx="457.835393518" cy="299.715530182" fill="lightgrey" r="10" /><circle cx="303.599732456" cy="462.020155203" fill="lightgrey" r="10" /><circle cx="307.769167542" cy="233.971741417" fill="lightgrey" r="10" /><circle cx="461.462008591" cy="408.023449061" fill="lightgrey" r="10" /><circle cx="226.546516917" cy="383.079261095" fill="lightgrey" r="10" /><circle cx="419.806572223" cy="240.425630394" fill="lightgrey" r="10" /><circle cx="372.921559452" cy="479.994623398" fill="lightgrey" r="10" /><circle cx="243.653655418" cy="268.397579729" fill="lightgrey" r="10" /><circle cx="485.544726809" cy="338.141373003" fill="lightgrey" r="10" /><circle cx="256.73551203" cy="451.780328569" fill="lightgrey" r="10" /><circle cx="350.0" cy="209.992857325" fill="lightgrey" r="10" /><circle cx="445.892170767" cy="454.647941144" fill="lightgrey" r="10" /><circle cx="206.703703437" cy="337.463198525" fill="lightgrey" r="10" /><circle cx="465.610665235" cy="261.288816467" fill="lightgrey" r="10" /><circle cx="324.372917457" cy="495.338407313" fill="lightgrey" r="10" /><circle cx="269.719994346" cy="223.985632993" fill="lightgrey" r="10" /><circle cx="496.072131085" cy="389.139909561" fill="lightgrey" r="10" /><circle cx="214.274298874" cy="420.654327919" fill="lightgrey" r="10" /><circle cx="402.939150124" cy="204.550880429" fill="lightgrey" r="10" /><circle cx="409.90248782" cy="494.617398514" fill="lightgrey" r="10" /><circle cx="206.565517988" cy="283.115402595" fill="lightgrey" r="10" /><circle cx="502.56937691" cy="301.89506024" fill="lightgrey" r="10" /><circle cx="269.166838488" cy="490.007142675" fill="lightgrey" r="10" /><circle cx="314.646392773" cy="190.530183245" fill="lightgrey" r="10" /><circle cx="485.160087308" cy="444.640111998" fill="lightgrey" r="10" /><circle cx="184.783812486" cy="371.751123728" fill="lightgrey" r="10" /><circle cx="458.160356641" cy="221.099506396" fill="lightgrey" r="10" /><circle cx="357.409969808" cy="519.71621121" fill="lightgrey" r="10" /><circle cx="228.750257732" cy="228.750257732" fill="lightgrey" r="10" /><circle cx="522.8887514" cy="357.548485904" fill="lightgrey" r="10" /><circle cx="216.233636079" cy="462.24330663" fill="lightgrey" r="10" /><circle cx="372.995033077" cy="175.335382937" fill="lightgrey" r="10" /><circle cx="451.930520095" cy="495.5718691" fill="lightgrey" r="10" /><circle cx="175.012727874" cy="311.206255739" fill="lightgrey" r="10" /><circle cx="506.532744178" cy="259.625778012" fill="lightgrey" r="10" /><circle cx="295.196832094" cy="523.813442482" fill="lightgrey" r="10" /><circle cx="272.349716406" cy="183.478429452" fill="lightgrey" r="10" /><circle cx="521.113613527" cy="420.877579429" fill="lightgrey" r="10" /><circle cx="174.581761561" cy="413.847017339" fill="lightgrey" r="10" /><circle cx="436.868279528" cy="183.127587625" fill="lightgrey" r="10" /><circle cx="399.064473217" cy="533.111106894" fill="lightgrey" r="10" /><circle cx="188.911129938" cy="247.375071536" fill="lightgrey" r="10" /><circle cx="539.498098905" cy="316.58637237" fill="lightgrey" r="10" /><circle cx="232.00309524" cy="503.7765602" fill="lightgrey" r="10" /><circle cx="332.984529188" cy="155.512278657" fill="lightgrey" r="10" /><circle cx="494.963611704" cy="482.834676503" fill="lightgrey" r="10" /><circle cx="152.0" cy="350.0" fill="lightgrey" r="10" /><circle cx="496.991173273" cy="215.307405624" fill="lightgrey" r="10" /><circle cx="332.505126353" cy="549.96732082" fill="lightgrey" r="10" /><circle cx="226.979722717" cy="189.676853271" fill="lightgrey" r="10" /><circle cx="550.335169196" cy="385.324495514" fill="lightgrey" r="10" /><circle cx="177.307492127" cy="460.01726103" fill="lightgrey" r="10" /><circle cx="403.338705814" cy="150.937239891" fill="lightgrey" r="10" /><circle cx="445.767486137" cy="533.967629215" fill="lightgrey" r="10" /><circle cx="153.876447179" cy="278.616864535" fill="lightgrey" r="10" /><circle cx="544.024600284" cy="269.632379128" fill="lightgrey" r="10" /><circle cx="260.699451247" cy="541.505644806" fill="lightgrey" r="10" /><circle cx="286.07366706" cy="147.251574712" fill="lightgrey" r="10" /><circle cx="535.212040645" cy="456.932221524" fill="lightgrey" r="10" /><circle cx="139.965847832" cy="396.563450508" fill="lightgrey" r="10" /><circle cx="474.119343272" cy="172.739207308" fill="lightgrey" r="10" /><circle cx="378.40901899" cy="565.787922832" fill="lightgrey" r="10" /><circle cx="182.314988623" cy="209.2955688" fill="lightgrey" r="10" /><circle cx="569.927934977" cy="340.397738987" fill="lightgrey" r="10" /><circle cx="193.467255822" cy="506.532744178" fill="lightgrey" r="10" /><circle cx="359.709552176" cy="127.614693389" fill="lightgrey" r="10" /><circle cx="493.866723373" cy="521.453684434" fill="lightgrey" r="10" /><circle cx="126.895164828" cy="320.627691226" fill="lightgrey" r="10" /><circle cx="535.322174868" cy="220.23601616" fill="lightgrey" r="10" /><circle cx="300.773665858" cy="572.045644017" fill="lightgrey" r="10" /><circle cx="235.6846467" cy="152.0" fill="lightgrey" r="10" /><circle cx="569.181709943" cy="419.107727689" fill="lightgrey" r="10" /><circle cx="140.642901195" cy="447.624818462" fill="lightgrey" r="10" /><circle cx="438.849747908" cy="135.497733586" fill="lightgrey" r="10" /><circle cx="429.808771674" cy="569.272798048" fill="lightgrey" r="10" /><circle cx="141.98792183" cy="241.715765988" fill="lightgrey" r="10" /><circle cx="577.636975139" cy="289.004856344" fill="lightgrey" r="10" /><circle cx="222.756947699" cy="549.731583985" fill="lightgrey" r="10" /><circle cx="308.677571041" cy="115.648859903" fill="lightgrey" r="10" /><circle cx="539.696905426" cy="495.559555069" fill="lightgrey" r="10" /><circle cx="110.670573184" cy="370.938611695" fill="lightgrey" r="10" /><circle cx="513.070039698" cy="172.040279408" fill="lightgrey" r="10" /><circle cx="350.0" cy="592.499484536" fill="lightgrey" r="10" /><circle cx="185.412997035" cy="170.384804499" fill="lightgrey" r="10" /><circle cx="593.803261224" cy="371.330021488" fill="lightgrey" r="10" /><circle cx="154.958474067" cy="499.660626625" fill="lightgrey" r="10" /><circle cx="392.88231112" cy="106.802328562" fill="lightgrey" r="10" /><circle cx="483.276840228" cy="559.20273387" fill="lightgrey" r="10" /><circle cx="109.344857847" cy="285.516649006" fill="lightgrey" r="10" /><circle cx="571.961057962" cy="234.454386719" fill="lightgrey" r="10" /><circle cx="264.043322296" cy="586.164031042" fill="lightgrey" r="10" /><circle cx="253.410140687" cy="116.811451658" fill="lightgrey" r="10" /><circle cx="579.728912754" cy="457.124351317" fill="lightgrey" r="10" /><circle cx="107.231729539" cy="426.544541655" fill="lightgrey" r="10" /><circle cx="477.808450425" cy="128.629270228" fill="lightgrey" r="10" /><circle cx="405.5556685" cy="600.59542633" fill="lightgrey" r="10" /><circle cx="138.873194382" cy="202.167419188" fill="lightgrey" r="10" /><circle cx="606.578383079" cy="316.220815041" fill="lightgrey" r="10" /><circle cx="182.9766149" cy="549.05071924" fill="lightgrey" r="10" /><circle cx="338.620229327" cy="89.3604005155" fill="lightgrey" r="10" /><circle cx="535.212040645" cy="535.212040645" fill="lightgrey" r="10" /><circle cx="87.2835581229" cy="338.52955243" fill="lightgrey" r="10" /><circle cx="552.235732983" cy="180.304071043" fill="lightgrey" r="10" /><circle cx="315.406741997" cy="612.76188175" fill="lightgrey" r="10" /><circle cx="197.397404749" cy="132.060907769" fill="lightgrey" r="10" /><circle cx="610.745068309" cy="407.805789955" fill="lightgrey" r="10" /><circle cx="117.824419889" cy="484.046633676" fill="lightgrey" r="10" /><circle cx="430.921992316" cy="93.3482297749" fill="lightgrey" r="10" /><circle cx="464.156225486" cy="594.808815574" fill="lightgrey" r="10" /><circle cx="99.515318115" cy="246.245847597" fill="lightgrey" r="10" /><circle cx="605.713827454" cy="256.927778317" fill="lightgrey" r="10" /><circle cx="223.8855572" cy="592.263590573" fill="lightgrey" r="10" /><circle cx="279.052888945" cy="85.2217768908" fill="lightgrey" r="10" /><circle cx="582.02540211" cy="497.816483436" fill="lightgrey" r="10" /><circle cx="78.0967373472" cy="397.943881348" fill="lightgrey" r="10" /><circle cx="518.67690598" cy="130.175976315" fill="lightgrey" r="10" /><circle cx="374.234782285" cy="627.004829069" fill="lightgrey" r="10" /><circle cx="144.269896253" cy="161.483092503" fill="lightgrey" r="10" /><circle cx="630.01428535" cy="350.0" fill="lightgrey" r="10" /><circle cx="142.836219648" cy="539.830630064" fill="lightgrey" r="10" /><circle cx="374.573746751" cy="69.1207893585" fill="lightgrey" r="10" /><circle cx="522.228388196" cy="574.452405421" fill="lightgrey" r="10" /><circle cx="70.4359916418" cy="300.705322491" fill="lightgrey" r="10" /><circle cx="590.22669594" cy="196.958716165" fill="lightgrey" r="10" /><circle cx="276.032523546" cy="626.050380233" fill="lightgrey" r="10" /><circle cx="217.598466415" cy="95.6590203992" fill="lightgrey" r="10" /><circle cx="620.337661352" cy="448.394861933" fill="lightgrey" r="10" /><circle cx="83.3386930201" cy="460.454729911" fill="lightgrey" r="10" /><circle cx="472.379186476" cy="87.5569876763" fill="lightgrey" r="10" /><circle cx="437.358787028" cy="627.06667488" fill="lightgrey" r="10" /><circle cx="97.5985340772" cy="204.275945706" fill="lightgrey" r="10" /><circle cx="635.450153824" cy="286.717224447" fill="lightgrey" r="10" /><circle cx="181.764056977" cy="590.26582669" fill="lightgrey" r="10" /><circle cx="311.594345298" cy="58.2800903487" fill="lightgrey" r="10" /><circle cx="576.106423215" cy="539.725816327" fill="lightgrey" r="10" /><circle cx="54.1998900348" cy="362.914911714" fill="lightgrey" r="10" /><circle cx="560.010714012" cy="139.989285988" fill="lightgrey" r="10" /><circle cx="337.005119029" cy="647.631707095" fill="lightgrey" r="10" /><circle cx="157.917250865" cy="121.084693643" fill="lightgrey" r="10" /><circle cx="647.173090175" cy="389.123579537" fill="lightgrey" r="10" /><circle cx="103.726600406" cy="522.442490856" fill="lightgrey" r="10" /><circle cx="415.267041694" cy="55.5994000202" fill="lightgrey" r="10" /><circle cx="501.224997934" cy="611.929379795" fill="lightgrey" r="10" /><circle cx="60.6910987444" cy="258.781253822" fill="lightgrey" r="10" /><circle cx="625.739582841" cy="221.420520865" fill="lightgrey" r="10" /><circle cx="233.228554096" cy="631.9112084" fill="lightgrey" r="10" /><circle cx="245.33177721" cy="62.4264213494" fill="lightgrey" r="10" /><circle cx="622.239361537" cy="491.718841479" fill="lightgrey" r="10" /><circle cx="52.6846414741" cy="429.665410214" fill="lightgrey" r="10" /><circle cx="515.8572615" cy="89.6562487637" fill="lightgrey" r="10" /><circle cx="403.755821847" cy="654.864415138" fill="lightgrey" r="10" /><circle cx="103.706908643" cy="161.012664049" fill="lightgrey" r="10" /><circle cx="660.136705527" cy="322.866554123" fill="lightgrey" r="10" /><circle cx="139.084351037" cy="580.174040722" fill="lightgrey" r="10" /><circle cx="350.0" cy="36.9345116433" fill="lightgrey" r="10" /><circle cx="562.090675598" cy="581.456357278" fill="lightgrey" r="10" /><circle cx="36.3979723314" cy="322.56337772" fill="lightgrey" r="10" /><circle cx="600.432760957" cy="157.836183844" fill="lightgrey" r="10" /><circle cx="295.036031308" cy="661.716156376" fill="lightgrey" r="10" /><circle cx="179.469788675" cy="82.3211868201" fill="lightgrey" r="10" /><circle cx="657.396693882" cy="432.366695882" fill="lightgrey" r="10" /><circle cx="66.9594436181" cy="497.341587622" fill="lightgrey" r="10" /><circle cx="459.428274536" cy="49.3482866635" fill="lightgrey" r="10" /><circle cx="472.763568689" cy="646.377472495" fill="lightgrey" r="10" /><circle cx="58.4913447596" cy="214.067281643" fill="lightgrey" r="10" /><circle cx="657.563735696" cy="253.025526632" fill="lightgrey" r="10" /><circle cx="188.333676976" cy="630.01428535" fill="lightgrey" r="10" /><circle cx="279.835998824" cy="33.5106432453" fill="lightgrey" r="10" /><circle cx="616.234496074" cy="536.419401083" fill="lightgrey" r="10" /><circle cx="26.9387910776" cy="392.531815028" fill="lightgrey" r="10" /><circle cx="559.987998684" cy="99.7460481661" fill="lightgrey" r="10" /><circle cx="364.286031939" cy="677.203926155" fill="lightgrey" r="10" /><circle cx="117.824419889" cy="117.824419889" fill="lightgrey" r="10" /><circle cx="678.860665487" cy="364.358366741" fill="lightgrey" r="10" /><circle cx="97.2053337707" cy="562.119911197" fill="lightgrey" r="10" /></svg>