<?xml version="1.0" encoding="UTF-8" standalone="no"?>
<svg
   xmlns:dc="http://purl.org/dc/elements/1.1/"
   xmlns:cc="http://creativecommons.org/ns#"
   xmlns:rdf="http://www.w3.org/1999/02/22-rdf-syntax-ns#"
   xmlns:svg="http://www.w3.org/2000/svg"
   xmlns="http://www.w3.org/2000/svg"
   xmlns:sodipodi="http://sodipodi.sourceforge.net/DTD/sodipodi-0.dtd"
   xmlns:inkscape="http://www.inkscape.org/namespaces/inkscape"
   height="200mm"
   version="1.1"
   viewBox="0 0 400 200"
   width="400mm"
   id="svg5853"
   inkscape:version="0.91 r13725"
   sodipodi:docname="teeth_schematic.svg">
  <metadata
     id="metadata5871">
    <rdf:RDF>
      <cc:Work
         rdf:about="">
        <dc:format>image/svg+xml</dc:format>
        <dc:type
           rdf:resource="http://purl.org/dc/dcmitype/StillImage" />
        <dc:title></dc:title>
      </cc:Work>
    </rdf:RDF>
  </metadata>
  <sodipodi:namedview
     pagecolor="#ffffff"
     bordercolor="#666666"
     borderopacity="1"
     objecttolerance="10"
     gridtolerance="10"
     guidetolerance="10"
     inkscape:pageopacity="0"
     inkscape:pageshadow="2"
     inkscape:window-width="640"
     inkscape:window-height="480"
     id="namedview5869"
     showgrid="true"
     inkscape:zoom="0.73942222"
     inkscape:cx="733.13093"
     inkscape:cy="394.02952"
     inkscape:current-layer="g6769"
     showguides="true"
     inkscape:guide-bbox="true"
     inkscape:snap-page="true"
     inkscape:snap-bbox="true"
     inkscape:snap-bbox-midpoints="true">
    <sodipodi:guide
       position="354.09317,573.24228"
       orientation="1,0"
       id="guide6761" />
    <inkscape:grid
       type="xygrid"
       id="grid6775"
       units="mm"
       spacingx="19.999999"
       spacingy="19.999999" />
  </sodipodi:namedview>
  <defs
     id="defs5855">
    <marker
       inkscape:stockid="Arrow2Mend"
       orient="auto"
       refY="0.0"
       refX="0.0"
       id="Arrow2Mend"
       style="overflow:visible;"
       inkscape:isstock="true">
      <path
         id="path6837"
         style="fill-rule:evenodd;stroke-width:0.625;stroke-linejoin:round;stroke:#80e5ff;stroke-opacity:1;fill:#55ddff;fill-opacity:1"
         d="M 8.7185878,4.0337352 L -2.2072895,0.016013256 L 8.7185884,-4.0017078 C 6.9730900,-1.6296469 6.9831476,1.6157441 8.7185878,4.0337352 z "
         transform="scale(0.6) rotate(180) translate(0,0)" />
    </marker>
    <marker
       inkscape:stockid="Arrow1Lstart"
       orient="auto"
       refY="0.0"
       refX="0.0"
       id="marker7730"
       style="overflow:visible"
       inkscape:isstock="true">
      <path
         id="path7732"
         d="M 0.0,0.0 L 5.0,-5.0 L -12.5,0.0 L 5.0,5.0 L 0.0,0.0 z "
         style="fill-rule:evenodd;stroke:#000000;stroke-width:1pt;stroke-opacity:1;fill:#000000;fill-opacity:1"
         transform="scale(0.8) translate(12.5,0)" />
    </marker>
    <marker
       inkscape:stockid="Arrow1Lstart"
       orient="auto"
       refY="0.0"
       refX="0.0"
       id="marker7636"
       style="overflow:visible"
       inkscape:isstock="true">
      <path
         id="path7638"
         d="M 0.0,0.0 L 5.0,-5.0 L -12.5,0.0 L 5.0,5.0 L 0.0,0.0 z "
         style="fill-rule:evenodd;stroke:#000000;stroke-width:1pt;stroke-opacity:1;fill:#000000;fill-opacity:1"
         transform="scale(0.8) translate(12.5,0)" />
    </marker>
    <marker
       inkscape:stockid="Arrow1Lstart"
       orient="auto"
       refY="0.0"
       refX="0.0"
       id="marker7560"
       style="overflow:visible"
       inkscape:isstock="true">
      <path
         id="path7562"
         d="M 0.0,0.0 L 5.0,-5.0 L -12.5,0.0 L 5.0,5.0 L 0.0,0.0 z "
         style="fill-rule:evenodd;stroke:#000000;stroke-width:1pt;stroke-opacity:1;fill:#000000;fill-opacity:1"
         transform="scale(0.8) translate(12.5,0)" />
    </marker>
    <marker
       inkscape:stockid="Arrow1Lstart"
       orient="auto"
       refY="0.0"
       refX="0.0"
       id="marker7520"
       style="overflow:visible"
       inkscape:isstock="true">
      <path
         id="path7522"
         d="M 0.0,0.0 L 5.0,-5.0 L -12.5,0.0 L 5.0,5.0 L 0.0,0.0 z "
         style="fill-rule:evenodd;stroke:#000000;stroke-width:1pt;stroke-opacity:1;fill:#000000;fill-opacity:1"
         transform="scale(0.8) translate(12.5,0)" />
    </marker>
    <marker
       inkscape:stockid="Arrow1Lstart"
       orient="auto"
       refY="0.0"
       refX="0.0"
       id="Arrow1Lstart"
       style="overflow:visible"
       inkscape:isstock="true">
      <path
         id="path6810"
         d="M 0.0,0.0 L 5.0,-5.0 L -12.5,0.0 L 5.0,5.0 L 0.0,0.0 z "
         style="fill-rule:evenodd;stroke:#000000;stroke-width:1pt;stroke-opacity:1;fill:#000000;fill-opacity:1"
         transform="scale(0.8) translate(12.5,0)" />
    </marker>
    <marker
       inkscape:stockid="Arrow2Lend"
       orient="auto"
       refY="0.0"
       refX="0.0"
       id="Arrow2Lend"
       style="overflow:visible;"
       inkscape:isstock="true">
      <path
         id="path6831"
         style="fill-rule:evenodd;stroke-width:0.625;stroke-linejoin:round;stroke:#000000;stroke-opacity:1;fill:#000000;fill-opacity:1"
         d="M 8.7185878,4.0337352 L -2.2072895,0.016013256 L 8.7185884,-4.0017078 C 6.9730900,-1.6296469 6.9831476,1.6157441 8.7185878,4.0337352 z "
         transform="scale(1.1) rotate(180) translate(1,0)" />
    </marker>
    <marker
       inkscape:stockid="Arrow2Mend"
       orient="auto"
       refY="0"
       refX="0"
       id="Arrow2Mend-5"
       style="overflow:visible"
       inkscape:isstock="true">
      <path
         inkscape:connector-curvature="0"
         id="path6837-5"
         style="fill:#ff6600;fill-opacity:1;fill-rule:evenodd;stroke:#ff6600;stroke-width:0.625;stroke-linejoin:round;stroke-opacity:1"
         d="M 8.7185878,4.0337352 -2.2072895,0.01601326 8.7185884,-4.0017078 c -1.7454984,2.3720609 -1.7354408,5.6174519 -6e-7,8.035443 z"
         transform="scale(-0.6,-0.6)" />
    </marker>
    <marker
       inkscape:stockid="Arrow2Mend"
       orient="auto"
       refY="0"
       refX="0"
       id="Arrow2Mend-9"
       style="overflow:visible"
       inkscape:isstock="true">
      <path
         inkscape:connector-curvature="0"
         id="path6837-2"
         style="fill:#55ddff;fill-opacity:1;fill-rule:evenodd;stroke:#80e5ff;stroke-width:0.625;stroke-linejoin:round;stroke-opacity:1"
         d="M 8.7185878,4.0337352 -2.2072895,0.01601326 8.7185884,-4.0017078 c -1.7454984,2.3720609 -1.7354408,5.6174519 -6e-7,8.035443 z"
         transform="scale(-0.6,-0.6)" />
    </marker>
  </defs>
  <path
     d="m 460,-49.999998 12.22222,0 0,10 22.22222,0 0,-10 22.22223,0 0,10 22.22222,0 0,-10 22.22222,0 0,10 22.22222,0 0,-10 22.22223,0 0,10 22.22222,0 0,-10 12.22222,0 0,0 0,22.22222 10,0 0,22.2222203 -10,0 0,22.2222297 10,0 0,22.22222 -10,0 0,22.22222 10,0 0,22.22222 -10,0 0,22.222228 10,0 0,22.22222 -10,0 0,22.22222 0,0 -12.22222,0 0,-10 -22.22222,0 0,10 -22.22223,0 0,-10 -22.22222,0 0,10 -22.22222,0 0,-10 -22.22222,0 0,10 -22.22223,0 0,-10 -22.22222,0 0,10 -12.22222,0 0,0 0,-22.22222 -10,0 0,-22.22222 10,0 0,-22.222228 -10,0 0,-22.22222 10,0 0,-22.22222 -10,0 0,-22.22222 10,0 0,-22.2222297 -10,0 0,-22.2222203 10,0 0,-22.22222"
     id="path5867"
     inkscape:connector-curvature="0"
     style="display:none;fill:none;stroke:#ffffff;stroke-width:1;stroke-opacity:1" />
  <g
     id="g6769"
     transform="translate(2.5954035,-176.76316)">
    <path
       inkscape:connector-curvature="0"
       id="path6747"
       d="m 97.40458,271.76316 22.22223,0 0,10 22.22222,0 0,-10 22.22222,0 0,10 22.22222,0 0,-10 22.22222,0 0,10 22.22222,0 0,-10 22.22223,0 0,10 22.22222,0 0,-10 22.22222,0 0,0"
       style="fill:none;stroke:#ff0000;stroke-width:2.82222223;stroke-miterlimit:4;stroke-dasharray:none;stroke-opacity:1" />
    <path
       inkscape:connector-curvature="0"
       id="path6804"
       d="m 177.4317,298.89653 0,-39.99999"
       style="fill:#55ddff;fill-rule:evenodd;stroke:#80e5ff;stroke-width:2.82222199;stroke-linecap:butt;stroke-linejoin:miter;stroke-miterlimit:4;stroke-dasharray:none;stroke-opacity:1;marker-end:url(#Arrow2Mend)" />
    <path
       inkscape:connector-curvature="0"
       id="path6804-8"
       d="m 175.27122,250.02681 39.99998,0"
       style="fill:#ff6600;fill-rule:evenodd;stroke:#ff6600;stroke-width:2.82222199;stroke-linecap:butt;stroke-linejoin:miter;stroke-miterlimit:4;stroke-dasharray:none;stroke-opacity:1;marker-end:url(#Arrow2Mend-5)" />
    <path
       inkscape:connector-curvature="0"
       id="path6804-4"
       d="m 217.37746,254.62979 0,39.99999"
       style="fill:#55ddff;fill-rule:evenodd;stroke:#80e5ff;stroke-width:2.82222199;stroke-linecap:butt;stroke-linejoin:miter;stroke-miterlimit:4;stroke-dasharray:none;stroke-opacity:1;marker-end:url(#Arrow2Mend-9)" />
    <g
       style="font-style:normal;font-weight:normal;font-size:19.7555542px;line-height:125%;font-family:Sans;letter-spacing:0px;word-spacing:0px;fill:#55ddff;fill-opacity:1;stroke:#80e5ff;stroke-width:1px;stroke-linecap:butt;stroke-linejoin:miter;stroke-opacity:1"
       id="text8761">
      <path
         d="m 120.04634,324.11844 -1.90996,0 0,-12.37616 -3.99355,8.42119 -1.13826,0 -3.96462,-8.42119 0,12.37616 -1.78456,0 0,-14.36329 2.6045,0 3.82956,7.99675 3.70417,-7.99675 2.65272,0 0,14.36329 z"
         style=""
         id="path9373" />
      <path
         d="m 132.15241,324.11844 -1.80385,0 0,-1.14791 q -0.24116,0.16399 -0.65595,0.46302 -0.40514,0.28939 -0.79099,0.46302 -0.45338,0.22187 -1.0418,0.36656 -0.58842,0.15434 -1.37942,0.15434 -1.45658,0 -2.46944,-0.96462 -1.01286,-0.96463 -1.01286,-2.4598 0,-1.22508 0.5209,-1.97749 0.53055,-0.76205 1.50482,-1.19613 0.98392,-0.43409 2.36333,-0.58843 1.37942,-0.15434 2.96141,-0.23151 l 0,-0.27974 q 0,-0.61736 -0.22187,-1.0225 -0.21221,-0.40515 -0.61736,-0.63666 -0.38585,-0.22186 -0.92604,-0.29903 -0.54019,-0.0772 -1.12861,-0.0772 -0.71383,0 -1.59164,0.19293 -0.87781,0.18327 -1.81349,0.54019 l -0.0965,0 0,-1.84244 q 0.53055,-0.14469 1.53376,-0.31833 1.00321,-0.17363 1.97748,-0.17363 1.13826,0 1.97749,0.19292 0.84887,0.18328 1.46623,0.63666 0.60772,0.44373 0.92604,1.1479 0.31833,0.70418 0.31833,1.74598 l 0,7.31187 z m -1.80385,-2.65272 0,-2.99999 q -0.82958,0.0482 -1.95819,0.14469 -1.11897,0.0965 -1.77492,0.27974 -0.78135,0.22187 -1.26366,0.69453 -0.48231,0.46302 -0.48231,1.28296 0,0.92604 0.55948,1.39871 0.55948,0.46302 1.70739,0.46302 0.95498,0 1.74597,-0.36656 0.791,-0.37621 1.46624,-0.8971 z"
         style=""
         id="path9375" />
      <path
         d="m 141.25849,324.02198 q -0.51126,0.13504 -1.11897,0.22186 -0.59807,0.0868 -1.07074,0.0868 -1.64951,0 -2.50803,-0.88746 -0.85851,-0.88746 -0.85851,-2.84565 l 0,-5.72988 -1.22508,0 0,-1.52411 1.22508,0 0,-3.09645 1.81349,0 0,3.09645 3.74276,0 0,1.52411 -3.74276,0 0,4.90995 q 0,0.84887 0.0386,1.33118 0.0386,0.47267 0.27009,0.88746 0.21222,0.38585 0.57878,0.56913 0.3762,0.17363 1.13826,0.17363 0.44373,0 0.92604,-0.1254 0.48231,-0.13505 0.69453,-0.22186 l 0.0965,0 0,1.63022 z"
         style=""
         id="path9377" />
      <path
         d="m 152.47709,318.9191 -7.93887,0 q 0,0.99357 0.29903,1.73633 0.29903,0.73312 0.81993,1.20578 0.50161,0.46302 1.18649,0.69453 0.69454,0.23151 1.52411,0.23151 1.09968,0 2.209,-0.43408 1.11897,-0.44373 1.59163,-0.86816 l 0.0965,0 0,1.97748 q -0.9164,0.38585 -1.87138,0.6463 -0.95498,0.26045 -2.00642,0.26045 -2.68167,0 -4.18648,-1.44694 -1.50482,-1.45658 -1.50482,-4.1286 0,-2.64308 1.43729,-4.19613 1.44694,-1.55305 3.80063,-1.55305 2.18006,0 3.3569,1.27331 1.18649,1.27331 1.18649,3.61735 l 0,0.98392 z m -1.76526,-1.38906 q -0.01,-1.42765 -0.72347,-2.209 -0.70418,-0.78134 -2.15112,-0.78134 -1.45659,0 -2.32475,0.85851 -0.85852,0.85852 -0.97427,2.13183 l 6.17361,0 z"
         style=""
         id="path9379" />
      <path
         d="m 161.94973,315.32104 -0.0965,0 q -0.40514,-0.0965 -0.79099,-0.13504 -0.3762,-0.0482 -0.8971,-0.0482 -0.83923,0 -1.62058,0.37621 -0.78134,0.36656 -1.50481,0.95498 l 0,7.64949 -1.8135,0 0,-10.77488 1.8135,0 0,1.59163 q 1.08038,-0.86816 1.90031,-1.22507 0.82958,-0.36656 1.6881,-0.36656 0.47266,0 0.68488,0.0289 0.21222,0.0193 0.63666,0.0868 l 0,1.86173 z"
         style=""
         id="path9381" />
      <path
         d="m 165.62495,311.53971 -2.045,0 0,-1.88103 2.045,0 0,1.88103 z m -0.11575,12.57873 -1.8135,0 0,-10.77488 1.8135,0 0,10.77488 z"
         style=""
         id="path9383" />
      <path
         d="m 177.41269,324.11844 -1.80385,0 0,-1.14791 q -0.24116,0.16399 -0.65595,0.46302 -0.40514,0.28939 -0.79099,0.46302 -0.45337,0.22187 -1.0418,0.36656 -0.58842,0.15434 -1.37941,0.15434 -1.45659,0 -2.46945,-0.96462 -1.01286,-0.96463 -1.01286,-2.4598 0,-1.22508 0.5209,-1.97749 0.53055,-0.76205 1.50482,-1.19613 0.98392,-0.43409 2.36334,-0.58843 1.37941,-0.15434 2.9614,-0.23151 l 0,-0.27974 q 0,-0.61736 -0.22186,-1.0225 -0.21222,-0.40515 -0.61737,-0.63666 -0.38585,-0.22186 -0.92604,-0.29903 -0.54019,-0.0772 -1.12861,-0.0772 -0.71382,0 -1.59163,0.19293 -0.87781,0.18327 -1.8135,0.54019 l -0.0965,0 0,-1.84244 q 0.53055,-0.14469 1.53376,-0.31833 1.00321,-0.17363 1.97749,-0.17363 1.13826,0 1.97748,0.19292 0.84887,0.18328 1.46623,0.63666 0.60772,0.44373 0.92604,1.1479 0.31833,0.70418 0.31833,1.74598 l 0,7.31187 z m -1.80385,-2.65272 0,-2.99999 q -0.82958,0.0482 -1.95819,0.14469 -1.11897,0.0965 -1.77492,0.27974 -0.78134,0.22187 -1.26366,0.69453 -0.48231,0.46302 -0.48231,1.28296 0,0.92604 0.55948,1.39871 0.55949,0.46302 1.70739,0.46302 0.95498,0 1.74598,-0.36656 0.79099,-0.37621 1.46623,-0.8971 z"
         style=""
         id="path9385" />
      <path
         d="m 182.75672,324.11844 -1.81349,0 0,-15.00959 1.81349,0 0,15.00959 z"
         style=""
         id="path9387" />
      <path
         d="m 203.6216,311.45289 -5.13181,0 0,12.66555 -1.90996,0 0,-12.66555 -5.13182,0 0,-1.69774 12.17359,0 0,1.69774 z"
         style=""
         id="path9389" />
      <path
         d="m 214.43506,324.11844 -1.81349,0 0,-6.13503 q 0,-0.74276 -0.0868,-1.38906 -0.0868,-0.65595 -0.31833,-1.0225 -0.24115,-0.40515 -0.69453,-0.59807 -0.45337,-0.20257 -1.17684,-0.20257 -0.74277,0 -1.55305,0.36655 -0.81029,0.36656 -1.55305,0.93569 l 0,8.04499 -1.8135,0 0,-15.00959 1.8135,0 0,5.43085 q 0.84887,-0.70418 1.75562,-1.09968 0.90675,-0.3955 1.86173,-0.3955 1.74597,0 2.66237,1.05145 0.91639,1.05144 0.91639,3.02893 l 0,6.99354 z"
         style=""
         id="path9391" />
      <path
         d="m 219.87556,311.53971 -2.04501,0 0,-1.88103 2.04501,0 0,1.88103 z m -0.11575,12.57873 -1.8135,0 0,-10.77488 1.8135,0 0,10.77488 z"
         style=""
         id="path9393" />
      <path
         d="m 231.25815,323.4432 q -0.90675,0.43408 -1.72668,0.67524 -0.81029,0.24116 -1.72668,0.24116 -1.1672,0 -2.14147,-0.33762 -0.97428,-0.34727 -1.66881,-1.0418 -0.70418,-0.69453 -1.09003,-1.75562 -0.38585,-1.06109 -0.38585,-2.47909 0,-2.64308 1.44694,-4.1479 1.45659,-1.50481 3.83922,-1.50481 0.92604,0 1.8135,0.26045 0.8971,0.26044 1.63986,0.63665 l 0,2.01607 -0.0965,0 q -0.82958,-0.6463 -1.71704,-0.99357 -0.87781,-0.34726 -1.71703,-0.34726 -1.54341,0 -2.44051,1.04179 -0.88745,1.03215 -0.88745,3.03858 0,1.94854 0.86816,2.99999 0.87781,1.04179 2.4598,1.04179 0.54983,0 1.11896,-0.14469 0.56913,-0.14469 1.02251,-0.3762 0.3955,-0.20258 0.74276,-0.42444 0.34727,-0.23151 0.54984,-0.3955 l 0.0965,0 0,1.99678 z"
         style=""
         id="path9395" />
      <path
         d="m 243.37386,324.11844 -2.39227,0 -4.32153,-4.71703 -1.17684,1.11897 0,3.59806 -1.8135,0 0,-15.00959 1.8135,0 0,9.62697 5.23792,-5.39226 2.28617,0 -5.00642,4.97747 5.37297,5.79741 z"
         style=""
         id="path9397" />
      <path
         d="m 254.29344,324.11844 -1.8135,0 0,-6.13503 q 0,-0.74276 -0.0868,-1.38906 -0.0868,-0.65595 -0.31833,-1.0225 -0.24116,-0.40515 -0.69453,-0.59807 -0.45338,-0.20257 -1.17685,-0.20257 -0.74276,0 -1.55305,0.36655 -0.81028,0.36656 -1.55304,0.93569 l 0,8.04499 -1.8135,0 0,-10.77488 1.8135,0 0,1.19614 q 0.84887,-0.70418 1.75562,-1.09968 0.90674,-0.3955 1.86173,-0.3955 1.74597,0 2.66236,1.05145 0.9164,1.05144 0.9164,3.02893 l 0,6.99354 z"
         style=""
         id="path9399" />
      <path
         d="m 266.80464,318.9191 -7.93887,0 q 0,0.99357 0.29903,1.73633 0.29903,0.73312 0.81993,1.20578 0.50161,0.46302 1.18649,0.69453 0.69453,0.23151 1.52411,0.23151 1.09968,0 2.209,-0.43408 1.11897,-0.44373 1.59163,-0.86816 l 0.0965,0 0,1.97748 q -0.91639,0.38585 -1.87137,0.6463 -0.95498,0.26045 -2.00642,0.26045 -2.68167,0 -4.18648,-1.44694 -1.50482,-1.45658 -1.50482,-4.1286 0,-2.64308 1.43729,-4.19613 1.44694,-1.55305 3.80063,-1.55305 2.18006,0 3.3569,1.27331 1.18649,1.27331 1.18649,3.61735 l 0,0.98392 z m -1.76526,-1.38906 q -0.01,-1.42765 -0.72347,-2.209 -0.70418,-0.78134 -2.15112,-0.78134 -1.45659,0 -2.32475,0.85851 -0.85852,0.85852 -0.97427,2.13183 l 6.17361,0 z"
         style=""
         id="path9401" />
      <path
         d="m 277.25155,321.01234 q 0,1.47588 -1.22507,2.42121 -1.21543,0.94534 -3.32797,0.94534 -1.19613,0 -2.19934,-0.27974 -0.99357,-0.28939 -1.66881,-0.62701 l 0,-2.03536 0.0965,0 q 0.85852,0.6463 1.90996,1.03215 1.05145,0.3762 2.01607,0.3762 1.19614,0 1.87138,-0.38585 0.67524,-0.38585 0.67524,-1.21543 0,-0.63665 -0.36656,-0.96463 -0.36656,-0.32797 -1.40835,-0.55948 -0.38585,-0.0868 -1.01286,-0.20257 -0.61736,-0.11576 -1.12862,-0.2508 -1.418,-0.37621 -2.01607,-1.09968 -0.58842,-0.73311 -0.58842,-1.7942 0,-0.6656 0.2701,-1.25402 0.27974,-0.58842 0.83922,-1.05144 0.54019,-0.45338 1.36977,-0.71382 0.83923,-0.2701 1.87138,-0.2701 0.96463,0 1.94854,0.24116 0.99357,0.23151 1.64952,0.56913 l 0,1.9389 -0.0965,0 q -0.69453,-0.51126 -1.68809,-0.85852 -0.99357,-0.35691 -1.94855,-0.35691 -0.99356,0 -1.67845,0.38585 -0.68488,0.3762 -0.68488,1.12861 0,0.66559 0.41479,1.00321 0.40514,0.33762 1.31189,0.54984 0.5016,0.11575 1.11896,0.23151 0.62701,0.11575 1.0418,0.21222 1.26366,0.28939 1.94855,0.99356 0.68488,0.71383 0.68488,1.89067 z"
         style=""
         id="path9403" />
      <path
         d="m 287.55377,321.01234 q 0,1.47588 -1.22508,2.42121 -1.21543,0.94534 -3.32796,0.94534 -1.19614,0 -2.19935,-0.27974 -0.99356,-0.28939 -1.6688,-0.62701 l 0,-2.03536 0.0965,0 q 0.85852,0.6463 1.90996,1.03215 1.05144,0.3762 2.01607,0.3762 1.19614,0 1.87138,-0.38585 0.67523,-0.38585 0.67523,-1.21543 0,-0.63665 -0.36655,-0.96463 -0.36656,-0.32797 -1.40836,-0.55948 -0.38585,-0.0868 -1.01286,-0.20257 -0.61736,-0.11576 -1.12861,-0.2508 -1.418,-0.37621 -2.01607,-1.09968 -0.58842,-0.73311 -0.58842,-1.7942 0,-0.6656 0.27009,-1.25402 0.27975,-0.58842 0.83923,-1.05144 0.54019,-0.45338 1.36977,-0.71382 0.83922,-0.2701 1.87137,-0.2701 0.96463,0 1.94855,0.24116 0.99357,0.23151 1.64951,0.56913 l 0,1.9389 -0.0965,0 q -0.69453,-0.51126 -1.6881,-0.85852 -0.99356,-0.35691 -1.94854,-0.35691 -0.99357,0 -1.67845,0.38585 -0.68489,0.3762 -0.68489,1.12861 0,0.66559 0.41479,1.00321 0.40514,0.33762 1.31189,0.54984 0.50161,0.11575 1.11897,0.23151 0.62701,0.11575 1.0418,0.21222 1.26366,0.28939 1.94854,0.99356 0.68489,0.71383 0.68489,1.89067 z"
         style=""
         id="path9405" />
    </g>
    <g
       style="font-style:normal;font-weight:normal;font-size:19.7555542px;line-height:125%;font-family:Sans;letter-spacing:0px;word-spacing:0px;fill:#ff6600;fill-opacity:1;stroke:#ff6600;stroke-width:1px;stroke-linecap:butt;stroke-linejoin:miter;stroke-opacity:1"
       id="text8761-6">
      <path
         d="m 145.30991,209.56222 -7.26363,0 0,4.05143 6.24113,0 0,1.69774 -6.24113,0 0,6.91638 -1.90996,0 0,-14.36329 9.17359,0 0,1.69774 z"
         style=""
         id="path9408" />
      <path
         d="m 149.28418,209.64904 -2.04501,0 0,-1.88103 2.04501,0 0,1.88103 z m -0.11576,12.57873 -1.8135,0 0,-10.77488 1.8135,0 0,10.77488 z"
         style=""
         id="path9410" />
      <path
         d="m 161.70857,222.22777 -1.8135,0 0,-6.13503 q 0,-0.74276 -0.0868,-1.38906 -0.0868,-0.65595 -0.31832,-1.0225 -0.24116,-0.40515 -0.69454,-0.59807 -0.45337,-0.20257 -1.17684,-0.20257 -0.74276,0 -1.55305,0.36655 -0.81029,0.36656 -1.55305,0.93569 l 0,8.04499 -1.8135,0 0,-10.77488 1.8135,0 0,1.19614 q 0.84887,-0.70418 1.75562,-1.09968 0.90675,-0.3955 1.86173,-0.3955 1.74598,0 2.66237,1.05145 0.9164,1.05144 0.9164,3.02892 l 0,6.99355 z"
         style=""
         id="path9412" />
      <path
         d="m 173.94004,221.00269 q 0,2.73954 -1.24437,4.0225 -1.24437,1.28295 -3.82957,1.28295 -0.85852,0 -1.67845,-0.1254 -0.81029,-0.11576 -1.60128,-0.33762 l 0,-1.85209 0.0965,0 q 0.44373,0.17364 1.40836,0.42444 0.96462,0.26045 1.92925,0.26045 0.92604,0 1.53376,-0.22186 0.60771,-0.22187 0.94533,-0.61737 0.33762,-0.3762 0.48231,-0.90674 0.1447,-0.53055 0.1447,-1.1865 l 0,-0.98391 q -0.81994,0.65594 -1.57234,0.98391 -0.74277,0.31833 -1.90032,0.31833 -1.92925,0 -3.06751,-1.38906 -1.12861,-1.39871 -1.12861,-3.93568 0,-1.38906 0.38585,-2.39227 0.39549,-1.01286 1.07073,-1.74598 0.62701,-0.68488 1.52411,-1.06109 0.8971,-0.38585 1.78456,-0.38585 0.93569,0 1.5627,0.19293 0.63665,0.18328 1.34083,0.56913 l 0.11575,-0.46302 1.69775,0 0,9.5498 z m -1.8135,-1.73633 0,-5.87457 q -0.72347,-0.32798 -1.35048,-0.46302 -0.61736,-0.1447 -1.23472,-0.1447 -1.49517,0 -2.35369,1.00321 -0.85852,1.00322 -0.85852,2.91318 0,1.8135 0.63665,2.74918 0.63666,0.93569 2.11254,0.93569 0.79099,0 1.58198,-0.29903 0.80064,-0.30868 1.46624,-0.81994 z"
         style=""
         id="path9414" />
      <path
         d="m 186.52841,217.02843 -7.93887,0 q 0,0.99357 0.29903,1.73633 0.29903,0.73311 0.81993,1.20578 0.50161,0.46302 1.18649,0.69453 0.69453,0.23151 1.52411,0.23151 1.09968,0 2.209,-0.43408 1.11897,-0.44373 1.59163,-0.86816 l 0.0965,0 0,1.97748 q -0.91639,0.38585 -1.87137,0.6463 -0.95498,0.26045 -2.00642,0.26045 -2.68167,0 -4.18648,-1.44694 -1.50482,-1.45659 -1.50482,-4.1286 0,-2.64308 1.43729,-4.19613 1.44694,-1.55305 3.80063,-1.55305 2.18006,0 3.3569,1.27331 1.18649,1.27331 1.18649,3.61735 l 0,0.98392 z m -1.76526,-1.38906 q -0.01,-1.42765 -0.72347,-2.209 -0.70418,-0.78134 -2.15112,-0.78134 -1.45659,0 -2.32475,0.85851 -0.85852,0.85852 -0.97427,2.13183 l 6.17361,0 z"
         style=""
         id="path9416" />
      <path
         d="m 196.00105,213.43037 -0.0965,0 q -0.40514,-0.0965 -0.79099,-0.13505 -0.37621,-0.0482 -0.8971,-0.0482 -0.83923,0 -1.62058,0.37621 -0.78134,0.36656 -1.50481,0.95498 l 0,7.64949 -1.8135,0 0,-10.77488 1.8135,0 0,1.59163 q 1.08038,-0.86816 1.90031,-1.22507 0.82958,-0.36656 1.6881,-0.36656 0.47266,0 0.68488,0.0289 0.21222,0.0193 0.63666,0.0868 l 0,1.86173 z"
         style=""
         id="path9418" />
      <path
         d="m 221.53471,207.86448 -3.7331,14.36329 -2.15112,0 -3.01928,-11.92279 -2.95176,11.92279 -2.10288,0 -3.80063,-14.36329 1.95819,0 3.01928,11.94208 2.97105,-11.94208 1.9389,0 2.99999,12.05783 2.99999,-12.05783 1.87137,0 z"
         style=""
         id="path9420" />
      <path
         d="m 226.14563,209.64904 -2.04501,0 0,-1.88103 2.04501,0 0,1.88103 z m -0.11576,12.57873 -1.8135,0 0,-10.77488 1.8135,0 0,10.77488 z"
         style=""
         id="path9422" />
      <path
         d="m 238.29993,222.22777 -1.8135,0 0,-1.12862 q -0.78135,0.67524 -1.63022,1.05145 -0.84887,0.3762 -1.84244,0.3762 -1.92925,0 -3.06751,-1.48552 -1.12861,-1.48553 -1.12861,-4.11896 0,-1.36977 0.38585,-2.4405 0.39549,-1.07074 1.06109,-1.82315 0.65594,-0.73311 1.52411,-1.11897 0.87781,-0.38585 1.81349,-0.38585 0.84887,0 1.50482,0.18328 0.65595,0.17364 1.37942,0.54984 l 0,-4.66879 1.8135,0 0,15.00959 z m -1.8135,-2.65273 0,-6.18325 q -0.73312,-0.32798 -1.3119,-0.45338 -0.57877,-0.1254 -1.26366,-0.1254 -1.52411,0 -2.37298,1.06109 -0.84887,1.06109 -0.84887,3.00964 0,1.9196 0.65595,2.92282 0.65594,0.99356 2.10288,0.99356 0.7717,0 1.5627,-0.33762 0.79099,-0.34726 1.47588,-0.88746 z"
         style=""
         id="path9424" />
      <path
         d="m 247.46388,222.13131 q -0.51125,0.13504 -1.11896,0.22186 -0.59807,0.0868 -1.07074,0.0868 -1.64951,0 -2.50803,-0.88746 -0.85852,-0.88746 -0.85852,-2.84565 l 0,-5.72988 -1.22507,0 0,-1.52411 1.22507,0 0,-3.09645 1.8135,0 0,3.09645 3.74275,0 0,1.52411 -3.74275,0 0,4.90995 q 0,0.84887 0.0386,1.33118 0.0386,0.47267 0.27009,0.88746 0.21222,0.38585 0.57878,0.56913 0.3762,0.17363 1.13826,0.17363 0.44372,0 0.92604,-0.1254 0.48231,-0.13505 0.69453,-0.22186 l 0.0965,0 0,1.63022 z"
         style=""
         id="path9426" />
      <path
         d="m 258.67284,222.22777 -1.8135,0 0,-6.13503 q 0,-0.74276 -0.0868,-1.38906 -0.0868,-0.65595 -0.31833,-1.0225 -0.24116,-0.40515 -0.69453,-0.59807 -0.45337,-0.20257 -1.17684,-0.20257 -0.74277,0 -1.55305,0.36655 -0.81029,0.36656 -1.55305,0.93569 l 0,8.04499 -1.8135,0 0,-15.00959 1.8135,0 0,5.43085 q 0.84887,-0.70418 1.75562,-1.09968 0.90675,-0.3955 1.86173,-0.3955 1.74597,0 2.66237,1.05145 0.91639,1.05144 0.91639,3.02892 l 0,6.99355 z"
         style=""
         id="path9428" />
    </g>
  </g>
</svg>
